# xmcd
#
# Track frame offsets:
# 150
# 12287
# 29289
# 49062
# 74719
# 92591
# 110217
# 124109
# 140798
# 152047
# 171282
#
# Disc length: 2860 seconds
#
#
# Revision: 0
# Processed by: cddbd v1.5.1PL0 Copyright (c) Steve Scherf et al.
# Submitted via: FreeRIP 2.80 
#
DISCID=9e0b2a0b
DTITLE=Stewboss - The Places We Meet
DYEAR=2004
DGENRE=Americana
TTITLE0=Always How It Starts
TTITLE1=Losing Girl
TTITLE2=Your Street
TTITLE3=Come On Take Me Back
TTITLE4=Joy
TTITLE5=Tell The Preacher
TTITLE6=Union Station
TTITLE7=She Shines
TTITLE8=Distant Angel
TTITLE9=Warm Rain
TTITLE10=Way Down Again/Sleep With Me
EXTD=
EXTT0=
EXTT1=
EXTT2=
EXTT3=
EXTT4=
EXTT5=
EXTT6=
EXTT7=
EXTT8=
EXTT9=
EXTT10=
PLAYORDER=
